# xmcd
#
# Track frame offsets: 
#        150
#        20165
#        37599
#        48421
#        64214
#        87152
#        116299
#        132954
#        148925
#
# Disc length: 2213 seconds
#
# Revision: 1
# Processed by: cddbd v1.5.2PL0 Copyright (c) Steve Scherf et al.
# Submitted via: ExactAudioCopyFreeDBPlugin 1.0
#
DISCID=7708a309
DTITLE=Gram Parsons - Grievous Angel MFSL UDSACD 2059
DYEAR=1974
DGENRE=Country
TTITLE0=Return Of The Grievous Angel
TTITLE1=Hearts On Fire
TTITLE2=I Can't Dance
TTITLE3=Brass Buttons
TTITLE4=$1000 Wedding
TTITLE5=Cash On The Barrelhead-Hickory Wind
TTITLE6=Love Hurts
TTITLE7=Las Vegas
TTITLE8=In My Hour Of Darkness
EXTD=
EXTT0=
EXTT1=
EXTT2=
EXTT3=
EXTT4=
EXTT5=
EXTT6=
EXTT7=
EXTT8=
PLAYORDER=
